<svg xmlns="http://www.w3.org/2000/svg" viewBox="0 0 24 24"><path d="M1.215 3.612h-.017C.541 3.612 0 4.153 0 4.81c0 .658.541 1.199 1.198 1.199h21.604c.657 0 1.198-.541 1.198-1.199 0-.657-.541-1.198-1.198-1.198H1.215zm0 7.19h-.017C.541 10.802 0 11.343 0 12c0 .657.541 1.198 1.198 1.198h21.604c.657 0 1.198-.541 1.198-1.198 0-.657-.541-1.198-1.198-1.198H1.215zm0 7.189h-.017C.541 17.991 0 18.532 0 19.19c0 .657.541 1.198 1.198 1.198h21.604c.657 0 1.198-.541 1.198-1.198 0-.658-.541-1.199-1.198-1.199H1.215z"/></svg>
